<svg xmlns="http://www.w3.org/2000/svg" viewBox="0 0 512 512">
  <path fill="#25d366" d="M256 0C114.6 0 0 114.6 0 256c0 45.4 11.9 89.4 34.5 128.2L0 512l132.6-34.3C170 499.7 212.3 512 256 512c141.4 0 256-114.6 256-256S397.4 0 256 0z"/>
  <path fill="#fff" d="M256 92c88.4 0 160 71.6 160 160 0 88.4-71.6 160-160 160-28 0-55.4-7.3-79.8-21.2l-5.8-3.4-78.5 20.3 20.9-76.5-3.8-6.2C94.8 300.8 88 278.5 88 252c0-88.4 71.6-160 160-160m0-28C147.4 64 64 147.4 64 252c0 33.3 8.8 64.6 24.3 91.6L64 448l107.5-28c26.3 14.4 56.5 22.7 88.5 22.7 108.6 0 196.5-87.9 196.5-196.5C456.5 147.4 368.6 64 260 64z"/>
  <path fill="#25d366" d="M365.1 310.6c-4-2-23.6-11.6-27.3-12.9-3.7-1.3-6.5-2-9.3 2-2.7 4-10.7 12.9-13.1 15.6s-4.8 3-8.8 1c-4-2-16.9-6.2-32.2-19.8-11.9-10.6-19.9-23.7-22.2-27.7-2.4-4-0.3-6.1 1.8-8 1.9-1.9 4-4.8 6-7.1 2-2.2 2.7-3.7 4-6.1 1.3-2.4 0.7-4.6-0.3-6.3-1-1.7-9.3-22.3-12.8-30.6-3.4-8.3-7-7.2-9.3-7.3-2.4-0.1-5.2-0.1-8 0s-7.4 1.1-11.3 5.2c-3.9 4-14.9 14.5-14.9 35.4 0 20.9 15.3 41.1 17.4 43.9 2.1 2.8 30.3 48.2 73.4 67.7 10.2 4.4 18.1 7 24.3 9 10.2 3.2 19.5 2.7 26.8 1.6 8.2-1.2 23.6-9.6 27-18.9 3.3-9.3 3.3-17.3 2.3-19.1-0.9-1.7-3.7-2.7-7.7-4.7z"/>
</svg>

