<svg width="24" height="24" viewBox="0 0 24 24" fill="none" xmlns="http://www.w3.org/2000/svg">
<path d="M9.38135 5.13889C13.7756 3.81629 18.6158 5.86729 21.6269 11.2918C21.7589 11.5297 21.8249 11.6486 21.8558 11.7987C21.8807 11.92 21.8807 12.0799 21.8558 12.2013C21.8249 12.3513 21.7591 12.4699 21.6275 12.707C21.0487 13.75 20.4023 14.6683 19.7044 15.4619" stroke="white" stroke-width="1.5" stroke-linecap="round" stroke-linejoin="round"/>
<path d="M9.5 9.92334C9.03166 10.4865 8.75 11.2104 8.75 12.0001C8.75 13.795 10.2051 15.2501 12 15.2501C12.8035 15.2501 13.5389 14.9585 14.1061 14.4754" stroke="white" stroke-width="1.5" stroke-linecap="round" stroke-linejoin="round"/>
<path d="M6.22312 6.75C4.77364 7.82826 3.45486 9.34251 2.37249 11.2927C2.24084 11.53 2.17501 11.6486 2.14418 11.7986C2.11925 11.92 2.11925 12.0799 2.14419 12.2012C2.17502 12.3513 2.24094 12.47 2.37278 12.7076C5.97964 19.206 12.2115 20.8633 17.1572 17.6795" stroke="white" stroke-width="1.5" stroke-linecap="round" stroke-linejoin="round"/>
<path d="M2.75 2.75L21.25 21.25" stroke="white" stroke-width="1.5" stroke-linecap="round" stroke-linejoin="round"/>
</svg>
